<svg width="40" height="40" viewBox="0 0 40 40" fill="none" xmlns="http://www.w3.org/2000/svg">
<rect width="40" height="40" rx="20" fill="black"/>
<path d="M26.8821 18.9813C26.762 18.9237 26.6399 18.8682 26.5163 18.8152C26.301 14.8477 24.133 12.5763 20.4929 12.553C20.4764 12.5529 20.46 12.5529 20.4435 12.5529C18.2662 12.5529 16.4554 13.4823 15.3408 15.1735L17.3428 16.5468C18.1754 15.2836 19.4821 15.0143 20.4445 15.0143C20.4556 15.0143 20.4667 15.0143 20.4777 15.0144C21.6763 15.022 22.5807 15.3705 23.1661 16.0501C23.5921 16.5448 23.877 17.2286 24.0181 18.0914C22.9555 17.9108 21.8062 17.8553 20.5776 17.9257C17.1167 18.1251 14.8917 20.1435 15.0412 22.9483C15.117 24.371 15.8258 25.5949 17.0368 26.3945C18.0608 27.0704 19.3795 27.4009 20.7501 27.3261C22.5601 27.2269 23.9801 26.5363 24.9707 25.2735C25.723 24.3146 26.1988 23.0719 26.4089 21.5061C27.2715 22.0267 27.9108 22.7117 28.2639 23.5353C28.8642 24.9352 28.8992 27.2356 27.0222 29.111C25.3776 30.754 23.4008 31.4647 20.4132 31.4867C17.0992 31.4621 14.5928 30.3993 12.9633 28.3277C11.4373 26.3879 10.6487 23.5861 10.6193 20C10.6487 16.4139 11.4373 13.612 12.9633 11.6722C14.5928 9.60068 17.0991 8.53788 20.4132 8.51325C23.7512 8.53807 26.3013 9.60598 27.9932 11.6875C28.8228 12.7083 29.4483 13.992 29.8606 15.4887L32.2067 14.8628C31.7069 13.0205 30.9204 11.4329 29.8502 10.1163C27.6811 7.4477 24.5088 6.08028 20.4213 6.05193H20.405C16.3258 6.08018 13.1891 7.45281 11.0818 10.1316C9.20655 12.5155 8.23927 15.8324 8.20677 19.9902L8.20667 20L8.20677 20.0098C8.23927 24.1676 9.20655 27.4846 11.0818 29.8684C13.1891 32.5472 16.3258 33.9199 20.405 33.9481H20.4213C24.0479 33.923 26.6042 32.9735 28.7101 30.8695C31.4652 28.1169 31.3823 24.6667 30.4742 22.5486C29.8227 21.0297 28.5806 19.796 26.8821 18.9813ZM20.6205 24.8683C19.1037 24.9538 17.5278 24.2729 17.4501 22.8146C17.3925 21.7333 18.2196 20.5268 20.7136 20.3831C20.9992 20.3666 21.2795 20.3586 21.5548 20.3586C22.4607 20.3586 23.3082 20.4466 24.0787 20.615C23.7913 24.204 22.1056 24.7868 20.6205 24.8683Z" fill="white"/>
</svg>
